# Blender v2.79 (sub 0) OBJ File: ''
# www.blender.org
mtllib ringGlow.mtl
o Cylinder
v -0.000000 -0.000943 -1.347735
v -0.000000 0.846081 -1.703862
v 0.262930 -0.000943 -1.321838
v 0.332407 0.846081 -1.671122
v 0.515756 -0.000943 -1.245144
v 0.652040 0.846081 -1.574163
v 0.748761 -0.000943 -1.120600
v 0.946615 0.846081 -1.416709
v 0.952992 -0.000943 -0.952992
v 1.204812 0.846081 -1.204812
v 1.120601 -0.000943 -0.748761
v 1.416709 0.846081 -0.946615
v 1.245144 -0.000943 -0.515756
v 1.574163 0.846081 -0.652040
v 1.321838 -0.000943 -0.262930
v 1.671123 0.846081 -0.332407
v 1.347735 -0.000943 -0.000000
v 1.703862 0.846081 0.000000
v 1.321838 -0.000943 0.262930
v 1.671123 0.846081 0.332407
v 1.245145 -0.000943 0.515756
v 1.574163 0.846081 0.652040
v 1.120601 -0.000943 0.748761
v 1.416709 0.846081 0.946615
v 0.952992 -0.000943 0.952992
v 1.204812 0.846081 1.204813
v 0.748761 -0.000943 1.120601
v 0.946615 0.846081 1.416710
v 0.515756 -0.000943 1.245145
v 0.652039 0.846081 1.574164
v 0.262930 -0.000943 1.321839
v 0.332406 0.846081 1.671123
v -0.000000 -0.000943 1.347735
v -0.000001 0.846081 1.703862
v -0.262931 -0.000943 1.321838
v -0.332408 0.846081 1.671123
v -0.515756 -0.000943 1.245144
v -0.652041 0.846081 1.574163
v -0.748762 -0.000943 1.120600
v -0.946616 0.846081 1.416709
v -0.952993 -0.000943 0.952992
v -1.204813 0.846081 1.204812
v -1.120601 -0.000943 0.748761
v -1.416710 0.846081 0.946614
v -1.245145 -0.000943 0.515755
v -1.574164 0.846081 0.652039
v -1.321839 -0.000943 0.262929
v -1.671123 0.846081 0.332406
v -1.347735 -0.000943 -0.000001
v -1.703862 0.846081 -0.000001
v -1.321838 -0.000943 -0.262931
v -1.671123 0.846081 -0.332409
v -1.245144 -0.000943 -0.515757
v -1.574162 0.846081 -0.652041
v -1.120600 -0.000943 -0.748763
v -1.416708 0.846081 -0.946616
v -0.952991 -0.000943 -0.952994
v -1.204811 0.846081 -1.204814
v -0.748760 -0.000943 -1.120601
v -0.946613 0.846081 -1.416710
v -0.515754 -0.000943 -1.245145
v -0.652038 0.846081 -1.574164
v -0.262928 -0.000943 -1.321839
v -0.332405 0.846081 -1.671123
vt 2.646699 0.062378
vt 2.648902 0.562279
vt 2.576648 0.562279
vt 2.574456 0.062378
vt 2.483041 0.562279
vt 2.480901 0.062378
vt 2.368745 0.562279
vt 2.366700 0.062378
vt 2.237725 0.562279
vt 2.235819 0.062378
vt 2.098198 0.562279
vt 2.096453 0.062378
vt 1.950043 0.562279
vt 1.948334 0.062378
vt 1.804763 0.562279
vt 1.803144 0.062378
vt 1.671474 0.562279
vt 1.669972 0.062378
vt 1.536170 0.562279
vt 1.534788 0.062378
vt 1.361992 0.562279
vt 1.360863 0.062378
vt 1.183950 0.562279
vt 1.182989 0.062378
vt 1.034931 0.562279
vt 1.034130 0.062378
vt 0.893014 0.562279
vt 0.892446 0.062378
vt 0.740896 0.562279
vt 0.740449 0.062378
vt 0.596382 0.562279
vt 0.596044 0.062378
vt 0.442647 0.562279
vt 0.442644 0.062378
vt 0.283485 0.562279
vt 0.283779 0.062378
vt 0.148405 0.562279
vt 0.148821 0.062378
vt 0.015755 0.562279
vt 0.016296 0.062378
vt -0.135510 0.562279
vt -0.134702 0.062378
vt -0.303120 0.562279
vt -0.302049 0.062378
vt -0.467402 0.562279
vt -0.466189 0.062378
vt -0.623099 0.562279
vt -0.621769 0.062378
vt -0.748656 0.562279
vt -0.747107 0.062378
vt -0.858345 0.562279
vt -0.856660 0.062378
vt -0.968187 0.562279
vt -0.966404 0.062378
vt -1.089147 0.562279
vt -1.087263 0.062378
vt -1.219907 0.562279
vt -1.217916 0.062378
vt -1.345445 0.562279
vt -1.343326 0.062378
vt -1.461793 0.562279
vt -1.459548 0.062378
vt -1.562808 0.562279
vt -1.560468 0.062378
vt -1.645439 0.562279
vt -1.643038 0.062378
vn 0.0000 -0.3876 -0.9218
vn 0.1798 -0.3876 -0.9041
vn 0.3528 -0.3876 -0.8516
vn 0.5121 -0.3876 -0.7665
vn 0.6518 -0.3876 -0.6518
vn 0.7665 -0.3876 -0.5121
vn 0.8516 -0.3876 -0.3528
vn 0.9041 -0.3876 -0.1798
vn 0.9218 -0.3876 0.0000
vn 0.9041 -0.3876 0.1798
vn 0.8516 -0.3876 0.3528
vn 0.7665 -0.3876 0.5121
vn 0.6518 -0.3876 0.6518
vn 0.5121 -0.3876 0.7665
vn 0.3528 -0.3876 0.8516
vn 0.1798 -0.3876 0.9041
vn 0.0000 -0.3876 0.9218
vn -0.1798 -0.3876 0.9041
vn -0.3528 -0.3876 0.8516
vn -0.5121 -0.3876 0.7665
vn -0.6518 -0.3876 0.6518
vn -0.7665 -0.3876 0.5121
vn -0.8516 -0.3876 0.3528
vn -0.9041 -0.3876 0.1798
vn -0.9218 -0.3876 0.0000
vn -0.9041 -0.3876 -0.1798
vn -0.8516 -0.3876 -0.3528
vn -0.7665 -0.3876 -0.5121
vn -0.6518 -0.3876 -0.6518
vn -0.5121 -0.3876 -0.7665
vn -0.3528 -0.3876 -0.8516
vn -0.1798 -0.3876 -0.9041
usemtl None
s 1
f 1/1/1 2/2/1 4/3/2 3/4/2
f 3/4/2 4/3/2 6/5/3 5/6/3
f 5/6/3 6/5/3 8/7/4 7/8/4
f 7/8/4 8/7/4 10/9/5 9/10/5
f 9/10/5 10/9/5 12/11/6 11/12/6
f 11/12/6 12/11/6 14/13/7 13/14/7
f 13/14/7 14/13/7 16/15/8 15/16/8
f 15/16/8 16/15/8 18/17/9 17/18/9
f 17/18/9 18/17/9 20/19/10 19/20/10
f 19/20/10 20/19/10 22/21/11 21/22/11
f 21/22/11 22/21/11 24/23/12 23/24/12
f 23/24/12 24/23/12 26/25/13 25/26/13
f 25/26/13 26/25/13 28/27/14 27/28/14
f 27/28/14 28/27/14 30/29/15 29/30/15
f 29/30/15 30/29/15 32/31/16 31/32/16
f 31/32/16 32/31/16 34/33/17 33/34/17
f 33/34/17 34/33/17 36/35/18 35/36/18
f 35/36/18 36/35/18 38/37/19 37/38/19
f 37/38/19 38/37/19 40/39/20 39/40/20
f 39/40/20 40/39/20 42/41/21 41/42/21
f 41/42/21 42/41/21 44/43/22 43/44/22
f 43/44/22 44/43/22 46/45/23 45/46/23
f 45/46/23 46/45/23 48/47/24 47/48/24
f 47/48/24 48/47/24 50/49/25 49/50/25
f 49/50/25 50/49/25 52/51/26 51/52/26
f 51/52/26 52/51/26 54/53/27 53/54/27
f 53/54/27 54/53/27 56/55/28 55/56/28
f 55/56/28 56/55/28 58/57/29 57/58/29
f 57/58/29 58/57/29 60/59/30 59/60/30
f 59/60/30 60/59/30 62/61/31 61/62/31
f 61/62/31 62/61/31 64/63/32 63/64/32
f 63/64/32 64/63/32 2/65/1 1/66/1
